<svg xmlns="http://www.w3.org/2000/svg" xmlns:xlink="http://www.w3.org/1999/xlink" width="500" zoomAndPan="magnify" viewBox="0 0 375 374.999991" height="500" preserveAspectRatio="xMidYMid meet" version="1.0"><defs><clipPath id="3907aef80e"><path d="M 320.066406 256 L 352.621094 256 L 352.621094 289 L 320.066406 289 Z M 320.066406 256 " clip-rule="nonzero"/></clipPath><clipPath id="fbecbb9f08"><path d="M 172.847656 342.585938 L 205 342.585938 L 205 374.835938 L 172.847656 374.835938 Z M 172.847656 342.585938 " clip-rule="nonzero"/></clipPath></defs><path fill="#39b284" d="M 226.320312 174.847656 C 223.59375 179.574219 225.210938 185.617188 229.933594 188.34375 L 292.019531 224.21875 C 301.742188 229.835938 304.988281 242.332031 298.832031 251.726562 C 293.269531 260.214844 281.949219 262.984375 273.0625 257.847656 L 258.753906 249.578125 C 254.035156 246.851562 247.996094 248.46875 245.269531 253.199219 C 242.546875 257.921875 244.164062 263.96875 248.882812 266.695312 L 262.726562 274.691406 C 281.707031 285.660156 306.234375 279.238281 316.855469 260.050781 C 327.128906 241.488281 320.660156 217.949219 302.226562 207.296875 L 239.808594 171.230469 C 235.085938 168.503906 229.046875 170.121094 226.320312 174.847656 " fill-opacity="1" fill-rule="nonzero"/><g clip-path="url(#3907aef80e)"><path fill="#39b284" d="M 344.609375 258.390625 C 336.949219 253.964844 327.15625 256.589844 322.730469 264.257812 C 318.308594 271.925781 320.933594 281.726562 328.59375 286.15625 C 336.257812 290.582031 346.050781 287.953125 350.472656 280.285156 C 354.898438 272.621094 352.273438 262.816406 344.609375 258.390625 " fill-opacity="1" fill-rule="nonzero"/></g><path fill="#057be5" d="M 196.140625 147.851562 C 198.867188 152.578125 204.902344 154.195312 209.625 151.46875 L 271.710938 115.589844 C 281.429688 109.976562 293.867188 113.410156 298.917969 123.441406 C 303.480469 132.503906 300.21875 143.703125 291.332031 148.835938 L 277.023438 157.101562 C 272.300781 159.832031 270.683594 165.878906 273.410156 170.597656 C 276.132812 175.328125 282.171875 176.945312 286.894531 174.214844 L 300.738281 166.21875 C 319.71875 155.253906 326.425781 130.78125 315.136719 111.980469 C 304.207031 93.792969 280.605469 87.632812 262.167969 98.289062 L 199.75 134.355469 C 195.03125 137.082031 193.410156 143.125 196.140625 147.851562 " fill-opacity="1" fill-rule="nonzero"/><path fill="#057be5" d="M 327.574219 87.09375 C 319.914062 91.519531 317.289062 101.324219 321.710938 108.992188 C 326.132812 116.65625 335.929688 119.285156 343.589844 114.859375 C 351.25 110.429688 353.875 100.625 349.453125 92.960938 C 345.03125 85.292969 335.234375 82.667969 327.574219 87.09375 " fill-opacity="1" fill-rule="nonzero"/><path fill="#9661db" d="M 157.6875 160.515625 C 163.140625 160.515625 167.558594 156.089844 167.558594 150.632812 L 167.558594 78.882812 C 167.558594 67.644531 176.746094 58.585938 187.957031 59.226562 C 198.078125 59.800781 206.140625 68.226562 206.140625 78.496094 L 206.140625 95.03125 C 206.140625 100.488281 210.554688 104.914062 216.011719 104.914062 C 221.460938 104.914062 225.882812 100.488281 225.882812 95.03125 L 225.882812 79.035156 C 225.882812 57.097656 208.058594 39.050781 186.148438 39.441406 C 164.949219 39.8125 147.8125 57.191406 147.8125 78.496094 L 147.8125 150.632812 C 147.8125 156.089844 152.234375 160.515625 157.6875 160.515625 " fill-opacity="1" fill-rule="nonzero"/><path fill="#9661db" d="M 170.832031 16.210938 C 170.832031 25.0625 178.003906 32.242188 186.847656 32.242188 C 195.695312 32.242188 202.863281 25.0625 202.863281 16.210938 C 202.863281 7.359375 195.695312 0.179688 186.847656 0.179688 C 178.003906 0.179688 170.832031 7.359375 170.832031 16.210938 " fill-opacity="1" fill-rule="nonzero"/><path fill="#e55c51" d="M 149.417969 200.171875 C 152.148438 195.445312 150.527344 189.402344 145.804688 186.675781 L 83.71875 150.796875 C 74 145.179688 70.753906 132.6875 76.910156 123.292969 C 82.46875 114.804688 93.785156 112.03125 102.675781 117.171875 L 116.984375 125.4375 C 121.703125 128.164062 127.742188 126.546875 130.46875 121.820312 C 133.195312 117.09375 131.578125 111.050781 126.855469 108.324219 L 113.015625 100.324219 C 94.035156 89.355469 69.507812 95.777344 58.882812 114.964844 C 48.605469 133.527344 55.082031 157.066406 73.515625 167.71875 L 135.933594 203.785156 C 140.65625 206.515625 146.695312 204.898438 149.417969 200.171875 " fill-opacity="1" fill-rule="nonzero"/><path fill="#e55c51" d="M 31.128906 116.628906 C 38.789062 121.054688 48.585938 118.425781 53.007812 110.761719 C 57.429688 103.09375 54.804688 93.292969 47.148438 88.863281 C 39.484375 84.433594 29.6875 87.0625 25.269531 94.730469 C 20.84375 102.398438 23.46875 112.203125 31.128906 116.628906 " fill-opacity="1" fill-rule="nonzero"/><path fill="#fbb03b" d="M 179.601562 227.167969 C 176.875 222.441406 170.835938 220.824219 166.117188 223.550781 L 104.03125 259.425781 C 94.304688 265.042969 81.875 261.609375 76.820312 251.578125 C 72.261719 242.515625 75.523438 231.316406 84.410156 226.179688 L 98.71875 217.914062 C 103.4375 215.1875 105.054688 209.140625 102.332031 204.417969 C 99.601562 199.691406 93.566406 198.074219 88.84375 200.800781 L 75.003906 208.800781 C 56.019531 219.765625 49.3125 244.238281 60.605469 263.035156 C 71.53125 281.226562 95.132812 287.386719 113.570312 276.730469 L 175.988281 240.664062 C 180.707031 237.933594 182.328125 231.894531 179.601562 227.167969 " fill-opacity="1" fill-rule="nonzero"/><path fill="#fbb03b" d="M 48.167969 287.925781 C 55.828125 283.496094 58.453125 273.695312 54.027344 266.027344 C 49.605469 258.359375 39.8125 255.734375 32.148438 260.15625 C 24.488281 264.585938 21.863281 274.390625 26.289062 282.054688 C 30.710938 289.722656 40.503906 292.351562 48.167969 287.925781 " fill-opacity="1" fill-rule="nonzero"/><path fill="#f2cb27" d="M 218.050781 214.503906 C 212.597656 214.503906 208.179688 218.925781 208.179688 224.386719 L 208.179688 296.136719 C 208.179688 307.375 198.988281 316.433594 187.78125 315.792969 C 177.660156 315.21875 169.601562 306.792969 169.601562 296.519531 L 169.601562 279.984375 C 169.601562 274.527344 165.183594 270.105469 159.730469 270.105469 C 154.277344 270.105469 149.859375 274.527344 149.859375 279.984375 L 149.859375 295.984375 C 149.859375 317.917969 167.675781 335.96875 189.59375 335.578125 C 210.792969 335.203125 227.921875 317.828125 227.921875 296.519531 L 227.921875 224.386719 C 227.921875 218.925781 223.503906 214.503906 218.050781 214.503906 " fill-opacity="1" fill-rule="nonzero"/><g clip-path="url(#fbecbb9f08)"><path fill="#f2cb27" d="M 204.90625 358.804688 C 204.90625 349.953125 197.738281 342.777344 188.890625 342.777344 C 180.042969 342.777344 172.871094 349.953125 172.871094 358.804688 C 172.871094 367.65625 180.042969 374.835938 188.890625 374.835938 C 197.738281 374.835938 204.90625 367.65625 204.90625 358.804688 " fill-opacity="1" fill-rule="nonzero"/></g></svg>